<svg aria-hidden="true" style="position: absolute; width: 0; height: 0; overflow: hidden;" version="1.1" xmlns="http://www.w3.org/2000/svg" xmlns:xlink="http://www.w3.org/1999/xlink">
<defs>
<symbol id="icon-untitled" viewBox="0 0 37 32">
<path fill="#fff" style="fill: var(--color1, #fff)" d="M18.286 31.347c0.327 0 0.653-0.122 0.898-0.367l12.714-12.245c0.184-0.184 4.673-4.286 4.673-9.184 0-5.98-3.653-9.551-9.755-9.551-3.571 0-6.918 2.816-8.53 4.408-1.612-1.592-4.959-4.408-8.531-4.408-6.102 0-9.755 3.571-9.755 9.551 0 4.898 4.49 9 4.653 9.143l12.735 12.286c0.245 0.245 0.571 0.367 0.898 0.367z"></path>
</symbol>
<symbol id="icon-1" viewBox="0 0 41 32">
<path fill="#fff" style="fill: var(--color1, #fff)" d="M21.673 11.204l2.674 1.245 3.98-1.184v-2.775c0-4.714-3.98-8.49-8.735-8.49-4.735 0-8.735 3.755-8.735 8.429v12.653c0 1.163-0.939 2.082-2.082 2.082s-2.082-0.918-2.082-2.082v-5.347h-6.694c0 5.367 0 5.429 0 5.429 0 4.837 3.918 8.755 8.755 8.755 4.796 0 8.755-3.857 8.755-8.633v-12.49c0-1.143 0.939-2.082 2.082-2.082s2.082 0.939 2.082 2.082v2.408zM32.49 15.735v5.612c0 1.143-0.939 2.061-2.082 2.061s-2.082-0.918-2.082-2.061v-5.51l-3.98 1.184-2.674-1.245v5.469c0 4.796 3.939 8.674 8.755 8.674 4.837 0 8.755-3.918 8.755-8.755 0 0 0-0.061 0-5.429h-6.694z"></path>
</symbol>
<symbol id="icon-untitled1" viewBox="0 0 28 32">
<path fill="#fff" style="fill: var(--color1, #fff)" d="M25.143 2.286h1.714c0.321 0 0.571-0.25 0.571-0.571v-1.143c0-0.321-0.25-0.571-0.571-0.571h-26.286c-0.321 0-0.571 0.25-0.571 0.571v1.143c0 0.321 0.25 0.571 0.571 0.571h1.714c0 6.607 3.161 11.393 6.661 13.714-3.5 2.321-6.661 7.107-6.661 13.714h-1.714c-0.321 0-0.571 0.25-0.571 0.571v1.143c0 0.321 0.25 0.571 0.571 0.571h26.286c0.321 0 0.571-0.25 0.571-0.571v-1.143c0-0.321-0.25-0.571-0.571-0.571h-1.714c0-6.607-3.161-11.393-6.661-13.714 3.5-2.321 6.661-7.107 6.661-13.714zM22.857 2.286c0 2.607-0.589 4.911-1.518 6.857h-15.25c-0.929-1.946-1.518-4.25-1.518-6.857h18.286zM21.839 24h-16.25c1.321-3.446 3.696-5.893 6.071-6.857h4.107c2.375 0.964 4.75 3.411 6.071 6.857z"></path>
</symbol>
</defs>
</svg>
